<svg width="50" height="50" viewBox="0 0 50 50" fill="none" xmlns="http://www.w3.org/2000/svg">
<g id="books.vertical">
<path id="books.vertical_2" d="M35.0222 37.4457C35.3162 39.9828 36.6775 41.174 39.2301 40.8491L42.2158 40.5088C44.7683 40.1839 45.8667 38.8071 45.5882 36.27L43.0975 13.7304C42.8191 11.1933 41.4268 9.98664 38.8897 10.327L35.904 10.6673C35.2388 10.7447 34.6819 10.8994 34.2178 11.1314V10.2651C34.2178 7.71256 32.9493 6.41309 30.3967 6.41309H26.2508C23.6828 6.41309 22.4143 7.71256 22.4143 10.2651V16.3293C22.1513 16.2984 21.8728 16.2829 21.5634 16.2829H14.4163C14.1069 16.2829 13.813 16.2984 13.55 16.3293V14.6431C13.55 12.0751 12.2815 10.7756 9.72894 10.7756H7.47033C4.90232 10.7756 3.63379 12.0751 3.63379 14.6431V36.9507C3.63379 39.5032 4.90232 40.8027 7.47033 40.8027H30.3967C32.9493 40.8027 34.2178 39.5032 34.2178 36.9507V30.2368L35.0222 37.4457ZM26.6994 9.36784H29.9481C30.8299 9.36784 31.2631 9.83194 31.2631 10.6673V36.533C31.2631 37.3839 30.8299 37.8479 29.9481 37.8479H25.3845V10.6673C25.3845 9.83194 25.8176 9.36784 26.6994 9.36784ZM37.9151 36.7186L35.5018 14.9834C35.409 14.148 35.7957 13.6839 36.6621 13.5602L38.7505 13.3127C39.6168 13.1889 40.1118 13.6221 40.2047 14.442L42.618 36.1772C42.7108 37.028 42.324 37.4921 41.4577 37.6159L39.3538 37.8634C38.4875 37.9872 38.0079 37.5695 37.9151 36.7186ZM7.90349 37.8479C7.03717 37.8479 6.58854 37.3839 6.58854 36.533V15.0298C6.58854 14.1945 7.03717 13.7458 7.90349 13.7458H9.26484C10.1621 13.7458 10.5798 14.1945 10.5798 15.0298V37.8479H7.90349ZM14.8649 19.2376H21.0993C21.9966 19.2376 22.4143 19.6863 22.4143 20.5216V37.8479H13.55V20.5216C13.55 19.6863 13.9832 19.2376 14.8649 19.2376ZM15.8241 23.1361H20.2021C20.759 23.1361 21.1921 22.6874 21.1921 22.1305C21.1921 21.5736 20.759 21.1404 20.2021 21.1404H15.8241C15.2362 21.1404 14.8185 21.5736 14.8185 22.1305C14.8185 22.6874 15.2517 23.1361 15.8241 23.1361ZM15.8241 35.9606H20.2021C20.759 35.9606 21.1921 35.512 21.1921 34.9396C21.1921 34.3982 20.759 33.9495 20.2021 33.9495H15.8241C15.2517 33.9495 14.8185 34.3982 14.8185 34.9396C14.8185 35.512 15.2362 35.9606 15.8241 35.9606Z" fill="white"/>
</g>
</svg>
