<svg width="50" height="50" viewBox="0 0 50 50" fill="none" xmlns="http://www.w3.org/2000/svg">
<g id="house">
<path id="house_2" d="M5.72217 23.2599C5.72217 24.0643 6.34096 24.7605 7.33104 24.7605C7.81061 24.7605 8.24376 24.4975 8.63051 24.1881L10.3941 22.703V37.09C10.3941 39.3795 11.7709 40.7409 14.1378 40.7409H35.0686C37.42 40.7409 38.8123 39.3795 38.8123 37.09V22.6256L40.6687 24.1881C41.04 24.4975 41.4731 24.7605 41.9527 24.7605C42.8654 24.7605 43.5616 24.1881 43.5616 23.2908C43.5616 22.7648 43.3605 22.3471 42.9583 22.0068L38.8123 18.5106V11.9204C38.8123 11.2243 38.3637 10.7911 37.6675 10.7911H35.5327C34.852 10.7911 34.3879 11.2243 34.3879 11.9204V14.7978L26.8541 8.47063C25.5082 7.34133 23.8065 7.34133 22.4606 8.47063L6.34096 22.0068C5.92328 22.3471 5.72217 22.8112 5.72217 23.2599ZM29.0972 27.5296C29.0972 26.8025 28.6331 26.3384 27.906 26.3384H21.4087C20.6816 26.3384 20.202 26.8025 20.202 27.5296V37.6624H14.9577C13.9986 37.6624 13.4726 37.1209 13.4726 36.1463V20.1195L23.9767 11.3016C24.4098 10.9304 24.9049 10.9304 25.338 11.3016L35.7183 20.0267V36.1463C35.7183 37.1209 35.1924 37.6624 34.2332 37.6624H29.0972V27.5296Z" fill="white"/>
</g>
</svg>
