<svg width="33" height="36" viewBox="0 0 33 36" fill="none" xmlns="http://www.w3.org/2000/svg">
<path id="magnifyingglass" d="M13.3127 28.847C16.0023 28.847 18.5228 27.9756 20.6204 26.487L28.0295 34.4566C28.52 34.9649 29.1459 35.2191 29.8226 35.2191C31.2266 35.2191 32.2584 34.0391 32.2584 32.5504C32.2584 31.8606 32.0385 31.1889 31.5649 30.6806L24.2065 22.7472C25.7289 20.4235 26.6255 17.6096 26.6255 14.5597C26.6255 6.69901 20.6373 0.272461 13.3127 0.272461C6.00511 0.272461 0 6.69901 0 14.5597C0 22.4205 5.98819 28.847 13.3127 28.847ZM13.3127 25.0346C7.95042 25.0346 3.55232 20.3146 3.55232 14.5597C3.55232 8.80488 7.95042 4.08482 13.3127 4.08482C18.675 4.08482 23.0731 8.80488 23.0731 14.5597C23.0731 20.3146 18.675 25.0346 13.3127 25.0346Z" fill="white"/>
</svg>
