<svg width="35" height="36" viewBox="0 0 35 36" fill="none" xmlns="http://www.w3.org/2000/svg">
<path id="person" d="M17.4832 17.8299C22.2911 17.8299 26.1851 13.8285 26.1851 8.92965C26.1851 4.10556 22.2911 0.272461 17.4832 0.272461C12.6952 0.272461 8.76149 4.16165 8.78136 8.96705C8.80123 13.8472 12.6754 17.8299 17.4832 17.8299ZM17.4832 14.5578C14.7416 14.5578 12.4171 12.1083 12.4171 8.96705C12.3972 5.90057 14.7217 3.54462 17.4832 3.54462C20.2647 3.54462 22.5494 5.86317 22.5494 8.92965C22.5494 12.0709 20.2448 14.5578 17.4832 14.5578ZM5.08604 35.2191H29.8606C33.2976 35.2191 34.9466 34.1907 34.9466 31.9843C34.9466 26.8424 28.1321 19.9989 17.4832 19.9989C6.83436 19.9989 0 26.8424 0 31.9843C0 34.1907 1.64899 35.2191 5.08604 35.2191ZM4.47015 31.9469C3.99333 31.9469 3.81453 31.7973 3.81453 31.4608C3.81453 28.6 8.72176 23.271 17.4832 23.271C26.2249 23.271 31.1321 28.6 31.1321 31.4608C31.1321 31.7973 30.9533 31.9469 30.4765 31.9469H4.47015Z" fill="white"/>
</svg>
