<svg width="430" height="74" viewBox="0 0 430 74" fill="none" xmlns="http://www.w3.org/2000/svg">
<path d="M430 0H0V74H430V0Z" fill="#2FAC66"/>
<path d="M97.1819 43.9112C94.837 45.5376 92.7005 47.0767 90.4945 48.5283C89.7997 48.983 89.6954 49.4027 89.9213 50.1897C90.4076 51.8162 91.2935 53.0929 92.7178 54.0023C93.2737 54.3521 93.8121 54.7543 94.698 55.3489C92.9957 55.3839 92.023 56.031 91.693 57.5525C89.1222 56.1884 86.7947 54.7368 86.3778 51.4139C84.2586 52.8305 82.2958 54.1422 80.333 55.4364C79.4124 56.0485 78.4918 56.6606 77.5191 57.1678C75.2436 58.3395 73.0724 58.392 70.9185 56.7131C62.7198 50.2597 54.4864 43.8412 46.2009 37.4927C44.6724 36.321 43.8907 35.0618 44.0123 33.138C44.1339 31.1792 44.9156 29.6577 46.5136 28.5384C52.072 24.6559 57.5609 20.6859 63.1714 16.9083C66.8539 14.4248 70.8142 14.4074 74.653 16.611C78.0402 18.5522 79.2213 21.5778 78.4918 25.9501C78.9955 25.7227 79.4298 25.5303 79.864 25.3379C84.1718 23.4666 89.4523 24.7083 92.162 28.2236C94.5069 31.2667 94.3332 35.2192 91.6235 37.9125C90.5987 38.9268 89.3828 39.7838 88.1669 40.5708C84.415 43.0192 80.5936 45.3802 76.8243 47.8287C76.0426 48.3359 75.261 48.9305 74.6704 49.6475C74.1667 50.2597 73.7671 51.0467 73.5934 51.8337C73.4892 52.3583 73.715 53.1628 74.0972 53.5126C74.3751 53.7574 75.2436 53.635 75.6778 53.3727C78.4571 51.6763 81.2015 49.9099 84.1892 48.0036C83.338 47.6013 82.7127 47.304 81.8616 46.9193C82.9385 46.2372 83.8939 45.4852 84.9708 45.0305C85.4224 44.8381 86.1346 45.3278 86.7425 45.3977C87.1942 45.4502 87.75 45.5027 88.0974 45.2753C89.7302 44.2435 91.2761 43.1067 92.9089 42.0748C93.2389 41.865 93.8643 41.865 94.2117 42.0574C95.167 42.5645 96.0529 43.2291 97.1298 43.9287L97.1819 43.9112Z" fill="white"/>
<path d="M128.28 21.48C130.36 21.32 132.48 21.24 134.64 21.24C136.827 21.24 138.707 21.7733 140.28 22.84C141.88 23.9067 142.68 25.4533 142.68 27.48C142.68 29 142.253 30.4133 141.4 31.72C140.573 33.0267 139.573 34.0133 138.4 34.68C140.293 35.2667 141.88 36.28 143.16 37.72C144.44 39.16 145.08 40.7733 145.08 42.56C145.08 45.0667 144.28 46.9733 142.68 48.28C141.107 49.5867 138.933 50.24 136.16 50.24C133.413 50.24 130.787 50.1333 128.28 49.92V21.48ZM136.4 48.52C138.347 48.52 139.947 47.9867 141.2 46.92C142.453 45.8267 143.08 44.44 143.08 42.76C143.08 41.08 142.467 39.6267 141.24 38.4C140.04 37.1733 138.387 36.3333 136.28 35.88C135.293 35.6667 134.147 35.56 132.84 35.56C131.56 35.56 130.68 35.56 130.2 35.56V48.32C131.373 48.4533 133.44 48.52 136.4 48.52ZM140.76 27.44C140.76 25.9733 140.147 24.84 138.92 24.04C137.72 23.24 136.36 22.84 134.84 22.84C133.347 22.84 131.8 22.8933 130.2 23V33.92C130.547 33.92 131.2 33.92 132.16 33.92C133.12 33.92 134.533 34 136.4 34.16C137.6 33.52 138.627 32.6 139.48 31.4C140.333 30.2 140.76 28.88 140.76 27.44ZM152.956 50V24.04H154.796V50H152.956ZM164.362 24.16C166.255 24 168.202 23.92 170.202 23.92C172.202 23.92 173.908 24.4 175.322 25.36C176.762 26.32 177.482 27.72 177.482 29.56C177.482 30.9467 177.108 32.2267 176.362 33.4C175.615 34.5733 174.708 35.4667 173.642 36.08C175.375 36.5867 176.815 37.4933 177.962 38.8C179.108 40.1067 179.682 41.5867 179.682 43.24C179.682 45.5333 178.948 47.2667 177.482 48.44C176.042 49.6133 174.002 50.2 171.362 50.2C168.722 50.2 166.388 50.1067 164.362 49.92V24.16ZM168.002 36.88L166.202 36.92V48.4C167.348 48.5067 169.202 48.56 171.762 48.56C173.495 48.56 174.922 48.08 176.042 47.12C177.188 46.1333 177.762 44.9067 177.762 43.44C177.762 41.9467 177.188 40.6533 176.042 39.56C174.922 38.44 173.455 37.6533 171.642 37.2C170.708 36.9867 169.495 36.88 168.002 36.88ZM175.682 29.52C175.682 28.2133 175.135 27.2133 174.042 26.52C172.948 25.8 171.642 25.44 170.122 25.44C168.602 25.44 167.295 25.48 166.202 25.56V35.36C168.522 35.36 170.375 35.4267 171.762 35.56C172.802 35 173.708 34.1867 174.482 33.12C175.282 32.0267 175.682 30.8267 175.682 29.52ZM187.292 50V24.04H189.132V48.32H201.052V50H187.292ZM206.511 50V24.04H208.351V50H206.511ZM229.436 50.4C225.73 50.4 222.623 49.1067 220.116 46.52C217.61 43.9333 216.356 40.7733 216.356 37.04C216.356 33.28 217.61 30.1067 220.116 27.52C222.623 24.9333 225.73 23.64 229.436 23.64C233.143 23.64 236.25 24.9333 238.756 27.52C241.263 30.1067 242.516 33.28 242.516 37.04C242.516 40.7733 241.263 43.9333 238.756 46.52C236.25 49.1067 233.143 50.4 229.436 50.4ZM229.436 25.28C226.236 25.28 223.57 26.4133 221.436 28.68C219.33 30.9467 218.276 33.7333 218.276 37.04C218.276 40.32 219.33 43.0933 221.436 45.36C223.57 47.6 226.236 48.72 229.436 48.72C232.663 48.72 235.33 47.6 237.436 45.36C239.543 43.0933 240.596 40.32 240.596 37.04C240.596 33.7333 239.543 30.9467 237.436 28.68C235.33 26.4133 232.663 25.28 229.436 25.28ZM262.574 48.64H261.494L253.934 30.28C253.614 29.56 253.294 28.72 252.974 27.76C252.974 27.7867 252.948 27.9333 252.894 28.2C252.868 28.4667 252.828 28.8267 252.774 29.28C252.721 29.7067 252.668 30.0667 252.614 30.36L249.614 50H247.814L252.054 23.88H253.134L261.214 43.04C261.854 44.64 262.174 45.48 262.174 45.56C262.361 45 262.721 44.1733 263.254 43.08L272.254 23.88H273.334L277.294 50H275.374L272.534 30.28C272.348 28.9733 272.254 28.1067 272.254 27.68L271.094 30.32L262.574 48.64ZM285.447 41L281.727 50H279.847L290.727 23.88H291.807L302.767 50H300.727L296.967 41H285.447ZM291.167 26.84C290.767 28.04 290.407 29.04 290.087 29.84L286.087 39.44H296.327L292.367 29.88C291.754 28.3867 291.354 27.3733 291.167 26.84ZM308.034 50V23.88H308.914L325.954 43.48C326.568 44.1733 327.128 44.8667 327.634 45.56C328.168 46.2267 328.448 46.5733 328.474 46.6C328.421 45.96 328.394 44.7067 328.394 42.84V24.04H330.234V50.16H329.354L311.994 30.24L309.794 27.56C309.848 28.0933 309.874 29.3467 309.874 31.32V50H308.034ZM339.831 50V24.04H341.671V50H339.831ZM352.557 41L348.837 50H346.957L357.837 23.88H358.917L369.877 50H367.837L364.077 41H352.557ZM358.277 26.84C357.877 28.04 357.517 29.04 357.197 29.84L353.197 39.44H363.437L359.477 29.88C358.863 28.3867 358.463 27.3733 358.277 26.84Z" fill="white"/>
</svg>
