<svg width="20" height="20" viewBox="0 0 20 20" fill="none" xmlns="http://www.w3.org/2000/svg">
<path d="M1.85254 16.7607H2.99512C3.25879 16.7607 3.36426 16.7168 3.55762 16.5586L4.14648 16.1104C4.47168 16.4443 4.95508 16.5059 5.43848 16.3037L8.34766 15.0908C8.56738 14.9941 8.68164 14.915 8.82227 14.7744L17.3037 6.35449C18.1475 5.51074 18.1387 4.5 17.2861 3.64746L15.3877 1.74023C14.5352 0.878906 13.5244 0.870117 12.6807 1.71387L4.19922 10.125C4.05859 10.2744 3.97949 10.3799 3.88281 10.5996L2.65234 13.5088C2.4502 13.9658 2.50293 14.4316 2.82812 14.7832L1.57129 16.0928C1.29883 16.3828 1.43066 16.7607 1.85254 16.7607ZM13.6562 2.86523C13.8848 2.63672 14.1572 2.62793 14.377 2.84766L16.1787 4.6582C16.3896 4.87793 16.3809 5.15039 16.1523 5.37891L15.5635 5.95898L13.0674 3.44531L13.6562 2.86523ZM5.74609 10.7227L12.127 4.38574L14.623 6.89062L8.24219 13.2363L5.74609 10.7227ZM5.2627 14.7568C5.0957 14.8271 4.98145 14.8271 4.83203 14.6777L4.27832 14.124C4.12891 13.9746 4.12891 13.8516 4.19922 13.6934L4.99023 11.8477L7.1084 13.9834L5.2627 14.7568ZM1.57129 19.8896H18.4287C18.8506 19.8896 19.1934 19.5293 19.1934 19.1162C19.1934 18.6943 18.8506 18.3428 18.4287 18.3428H1.57129C1.14941 18.3428 0.806641 18.6943 0.806641 19.1162C0.806641 19.5293 1.14941 19.8896 1.57129 19.8896Z" fill="#1C1C1E"/>
</svg>
